<svg width="900" height="500" xmlns="http://www.w3.org/2000/svg">
 <!-- Created with Method Draw - http://github.com/duopixel/Method-Draw/ -->

 <g>
  <title>background</title>
  <rect fill="#fff" id="canvas_background" height="502" width="902" y="-1" x="-1"/>
  <g display="none" id="canvasGrid">
   <rect fill="url(#gridpattern)" stroke-width="0" y="0" x="0" height="100%" width="100%" id="svg_4"/>
  </g>
 </g>
 <g>
  <title>Layer 1</title>
  <text stroke="#E6C36A" transform="rotate(-0.11650260537862778 440.8638916015243,277.12414550780056) matrix(5.76481112568258,0,0,5.90751450687623,-1376.76302834927,-1473.3923873418194) " xml:space="preserve" text-anchor="start" font-family="Helvetica, Arial, sans-serif" font-size="24" id="svg_1" y="304.647223" x="267.953211" stroke-width="0" fill="#0f0e0d">welcome</text>
  <path stroke="#E6C36A" id="svg_2" d="m806.257555,191.441231c-0.347929,-0.532573 -0.779584,-1.05455 -1.329969,-1.45499c-2.354966,-1.746139 -5.678242,-1.213543 -7.404736,1.196441c-1.723559,2.415712 -1.178772,5.792158 1.181602,7.543189c2.144662,1.58136 5.006634,1.202205 6.832815,-0.6582l-50.109184,70.291294l-15.57822,57.539011l48.911569,-32.93342l111.388725,-156.251971l-33.346806,-24.61053l-10.749549,15.08065c-0.614952,-2.508692 -1.988057,-4.864048 -4.213467,-6.522099c-5.163218,-3.80951 -12.381638,-2.657113 -16.123081,2.607364c-21.439948,30.096041 -9.554564,38.110633 -29.45971,68.17326l0.000011,0zm-24.53132,94.078904l-25.15977,16.941749l8.011661,-29.622987l17.14812,12.681237l-0.000011,0zm29.637809,-95.610503c15.435124,-23.20537 13.964911,-29.497478 27.174708,-50.094624c2.185157,1.52593 4.693793,2.064219 7.156536,1.932087l-34.331244,48.162549l0,-0.000012z" stroke-width="0" fill="#0f0e0d" transform="rotate(-1.258398175239563 820,219.000030517577) "/>
  <ellipse stroke="#E6C36A" ry="5" rx="4.5" id="svg_7" cy="325" cx="738" stroke-width="0" fill="#0f0e0d"/>
 </g>
</svg>